<svg width="24" height="24" viewBox="0 0 24 24" fill="none" xmlns="http://www.w3.org/2000/svg">
<path d="M3 11.9998C3 11.5767 3.31232 11.2272 3.7156 11.176L3.81818 11.1695L20.1818 11.1695C20.5135 11.1695 20.8113 11.3721 20.9378 11.6832C20.9793 11.785 21 11.8924 21 11.9998C21 12.1797 20.9424 12.3581 20.8317 12.5042L20.7589 12.5877L14.1589 19.2582C13.8393 19.5815 13.3211 19.5804 13.0025 19.256C12.7105 18.9576 12.6862 18.4909 12.9312 18.1661L13.0047 18.0813L18.2007 12.8302L3.81818 12.8302C3.36655 12.8302 3 12.4582 3 11.9998ZM13.0046 5.91866C12.6839 5.59538 12.6839 5.06948 13.0024 4.74399C13.2944 4.44663 13.7542 4.42092 14.0758 4.66771L14.1599 4.74177L17.7992 8.42079C17.9606 8.58354 18.0403 8.79611 18.0403 9.00979C18.0403 9.22125 17.9606 9.43271 17.8013 9.59546C17.5093 9.89384 17.0505 9.91963 16.729 9.67199L16.645 9.59768L13.0046 5.91866Z" fill="#200E32"/>
</svg>
