<svg width="24" height="24" viewBox="0 0 24 24" fill="none" xmlns="http://www.w3.org/2000/svg">
<path d="M14 11.9998C14 11.5767 13.6877 11.2272 13.2844 11.176L13.1818 11.1695L3.81818 11.1695C3.48655 11.1695 3.18873 11.3721 3.06218 11.6832C3.02073 11.785 3 11.8924 3 11.9998C3 12.1797 3.05758 12.3581 3.16831 12.5042L3.24109 12.5877L9.84109 19.2582C10.1607 19.5815 10.6789 19.5804 10.9975 19.256C11.2895 18.9576 11.3138 18.4909 11.0688 18.1661L10.9953 18.0813L5.79927 12.8302L13.1818 12.8302C13.6335 12.8302 14 12.4582 14 11.9998ZM10.9954 5.91866C11.3161 5.59538 11.3161 5.06949 10.9976 4.74399C10.7056 4.44663 10.2458 4.42092 9.92417 4.66771L9.84011 4.74177L6.20084 8.42079C6.03938 8.58354 5.95975 8.79611 5.95975 9.00979C5.95975 9.22125 6.03938 9.43271 6.19865 9.59546C6.49065 9.89384 6.94949 9.91963 7.27097 9.672L7.35502 9.59768L10.9954 5.91866Z" fill="white"/>
<path d="M20 19.5002L20 17.0002C20 14.2388 17.7614 12.0002 15 12.0002L12 12.0002" stroke="white" stroke-width="1.6" stroke-linecap="round"/>
</svg>
