<svg width="24" height="24" viewBox="0 0 24 24" fill="none" xmlns="http://www.w3.org/2000/svg">
<path d="M15.753 2C19.59 2 22 4.392 22 8.253V10.822C22 11.239 21.661 11.578 21.244 11.578H21.235V11.56C20.813 11.56 20.471 11.219 20.47 10.797V8.253C20.47 5.2 18.8 3.53 15.756 3.53H8.256C5.21 3.53 3.53 5.21 3.53 8.253V15.753C3.53 18.787 5.21 20.467 8.253 20.467H15.753C18.796 20.467 20.467 18.787 20.467 15.753C20.467 15.331 20.809 14.988 21.232 14.988C21.654 14.988 21.997 15.331 21.997 15.753C22 19.608 19.608 22 15.756 22H8.253C4.392 22 2 19.608 2 15.756V8.256C2 4.392 4.392 2 8.253 2H15.753ZM9.8148 13.1454C10.1238 12.8564 10.6078 12.8744 10.8968 13.1824C11.1848 13.4924 11.1678 13.9764 10.8588 14.2644L10.1778 14.9454C9.8768 15.2274 9.4068 15.2194 9.1148 14.9274L9.0928 14.9114C8.8088 14.6004 8.8258 14.1194 9.1308 13.8294L9.8148 13.1454ZM9.2416 8.8913C9.5336 8.5923 10.0116 8.5863 10.3106 8.8783C10.3136 8.8803 10.3156 8.8823 10.3186 8.8853L12.1836 10.7513L13.8806 9.0533C14.1856 8.7623 14.6666 8.7653 14.9686 9.0603C15.0226 9.1143 15.0686 9.1753 15.1036 9.2433C15.2766 9.5443 15.2266 9.9223 14.9816 10.1683L13.2916 11.8573L15.1296 13.6963C15.4396 13.9893 15.4516 14.4783 15.1576 14.7873C15.1536 14.7933 15.1476 14.7973 15.1426 14.8033C14.8486 15.0963 14.3736 15.1023 14.0726 14.8153L14.0346 14.7783L9.2546 9.9993C8.9626 9.6893 8.9566 9.2073 9.2416 8.8913Z" fill="#200E32"/>
</svg>
