<svg width="24" height="24" viewBox="0 0 24 24" fill="none" xmlns="http://www.w3.org/2000/svg">
<path d="M15.753 1.99976C19.59 1.99976 22 4.39176 22 8.25276V10.8218C22 11.2388 21.661 11.5778 21.244 11.5778H21.235V11.5598C20.813 11.5598 20.471 11.2188 20.47 10.7968V8.25276C20.47 5.19976 18.8 3.52976 15.756 3.52976H8.256C5.21 3.52976 3.53 5.20976 3.53 8.25276V15.7528C3.53 18.7868 5.21 20.4668 8.253 20.4668H15.753C18.796 20.4668 20.467 18.7868 20.467 15.7528C20.467 15.3308 20.809 14.9878 21.232 14.9878C21.654 14.9878 21.997 15.3308 21.997 15.7528C22 19.6078 19.608 21.9998 15.756 21.9998H8.253C4.392 21.9998 2 19.6078 2 15.7558V8.25576C2 4.39176 4.392 1.99976 8.253 1.99976H15.753ZM9.8148 13.1452C10.1238 12.8562 10.6078 12.8742 10.8968 13.1822C11.1848 13.4922 11.1678 13.9762 10.8588 14.2642L10.1778 14.9452C9.8768 15.2272 9.4068 15.2192 9.1148 14.9272L9.0928 14.9112C8.8088 14.6002 8.8258 14.1192 9.1308 13.8292L9.8148 13.1452ZM9.2416 8.89106C9.5336 8.59206 10.0116 8.58606 10.3106 8.87806C10.3136 8.88006 10.3156 8.88206 10.3186 8.88506L12.1836 10.7511L13.8806 9.05306C14.1856 8.76206 14.6666 8.76506 14.9686 9.06006C15.0226 9.11406 15.0686 9.17506 15.1036 9.24306C15.2766 9.54406 15.2266 9.92206 14.9816 10.1681L13.2916 11.8571L15.1296 13.6961C15.4396 13.9891 15.4516 14.4781 15.1576 14.7871C15.1536 14.7931 15.1476 14.7971 15.1426 14.8031C14.8486 15.0961 14.3736 15.1021 14.0726 14.8151L14.0346 14.7781L9.2546 9.99906C8.9626 9.68906 8.9566 9.20706 9.2416 8.89106Z" fill="white"/>
</svg>
