<svg width="24" height="24" viewBox="0 0 24 24" fill="none" xmlns="http://www.w3.org/2000/svg">
<path d="M16.3679 4C19.2599 4 20.992 5.75629 20.9998 8.68874V17.3113C20.9998 20.2437 19.2756 22 16.3757 22H13.805C13.4754 21.9631 13.2258 21.6807 13.2258 21.3444C13.2258 21.0081 13.4754 20.7256 13.805 20.6887H16.3679C18.578 20.6887 19.691 19.5523 19.691 17.3113V8.68874C19.691 6.44768 18.578 5.31126 16.3679 5.31126H9.4239C7.21374 5.31126 6.09298 6.44768 6.09298 8.68874V17.3113C6.09298 19.5523 7.21374 20.6887 9.4239 20.6887C9.75357 20.7256 10.0031 21.0081 10.0031 21.3444C10.0031 21.6807 9.75357 21.9631 9.4239 22C6.53188 22 4.7998 20.2437 4.7998 17.3113V8.68874C4.7998 5.74834 6.53188 4 9.4239 4H16.3679ZM16.1328 12.3444C16.3808 12.3166 16.6225 12.4352 16.7551 12.6495C16.8877 12.8638 16.8877 13.1362 16.7551 13.3505C16.6225 13.5648 16.3808 13.6834 16.1328 13.6556H9.64335C9.31367 13.6188 9.06413 13.3363 9.06413 13C9.06413 12.6637 9.31367 12.3812 9.64335 12.3444H16.1328ZM12.12 8.53775C12.4497 8.57461 12.6992 8.85707 12.6992 9.19338C12.6992 9.52969 12.4497 9.81215 12.12 9.84901H9.65118C9.32151 9.81215 9.07197 9.52969 9.07197 9.19338C9.07197 8.85707 9.32151 8.57461 9.65118 8.53775H12.12Z" fill="white"/>
<path d="M17.5 4.75V4.75C17.5 3.23122 16.2688 2 14.75 2H7.53125C5.02871 2 3 4.02871 3 6.53125V16.25C3 17.6307 4.11929 18.75 5.5 18.75V18.75" stroke="white" stroke-width="1.5" stroke-linecap="round" stroke-linejoin="round"/>
</svg>
