<svg width="24" height="24" viewBox="0 0 24 24" fill="none" xmlns="http://www.w3.org/2000/svg">
<path d="M10.822 1.99976C11.239 1.99976 11.578 2.33876 11.578 2.75576V2.76476H11.561C11.561 3.18676 11.219 3.52876 10.797 3.52976H8.253C5.2 3.52976 3.53 5.19976 3.53 8.24376V15.7438C3.53 18.7898 5.21 20.4698 8.253 20.4698H15.753C18.787 20.4698 20.467 18.7898 20.467 15.7468V8.24676C20.467 5.20376 18.787 3.53276 15.753 3.53276C15.331 3.53276 14.988 3.18976 14.988 2.76776C14.988 2.34576 15.331 2.00276 15.753 2.00276C19.608 1.99976 22 4.39176 22 8.24376V15.7468C22 19.6078 19.608 21.9998 15.756 21.9998H8.256C4.393 21.9998 2 19.6078 2 15.7468V8.24676C2 4.40976 4.393 1.99976 8.253 1.99976H10.822ZM12.0001 7.16386C12.4141 7.16386 12.7501 7.49986 12.7501 7.91386V16.0859C12.7501 16.1849 12.7301 16.2809 12.6921 16.3739C12.6541 16.4649 12.5991 16.5479 12.5291 16.6169C12.5221 16.6249 12.5131 16.6269 12.5061 16.6339C12.4401 16.6929 12.3681 16.7439 12.2861 16.7779C12.2051 16.8109 12.1201 16.8249 12.0351 16.8289C12.0221 16.8299 12.0131 16.8359 12.0001 16.8359C11.9011 16.8359 11.8041 16.8159 11.7131 16.7779C11.6211 16.7399 11.5381 16.6849 11.4701 16.6159C11.4691 16.6159 11.4691 16.6159 11.4691 16.6149L7.7211 12.8509C7.4301 12.5579 7.4281 12.0829 7.7231 11.7909C8.0171 11.4979 8.4911 11.4989 8.7831 11.7929L11.2501 14.2699V7.91386C11.2501 7.49986 11.5861 7.16386 12.0001 7.16386ZM15.2171 11.7926C15.5091 11.4986 15.9831 11.4976 16.2771 11.7896C16.4251 11.9376 16.4981 12.1296 16.4981 12.3226C16.4981 12.5136 16.4251 12.7046 16.2791 12.8516L15.0011 14.1356C14.7091 14.4286 14.2341 14.4296 13.9401 14.1376C13.6471 13.8446 13.6471 13.3706 13.9391 13.0766L15.2171 11.7926Z" fill="#200E32"/>
</svg>
