<svg width="24" height="24" viewBox="0 0 24 24" fill="none" xmlns="http://www.w3.org/2000/svg">
<path d="M16.359 2C19.733 2 22 4.368 22 7.893V10.263C22 10.648 21.687 10.961 21.302 10.961C20.917 10.961 20.604 10.648 20.604 10.263V7.893C20.604 5.16 18.938 3.396 16.359 3.396H7.641C5.062 3.396 3.395 5.16 3.395 7.893V16.107C3.395 18.84 5.062 20.604 7.641 20.604H16.358C18.937 20.604 20.604 18.84 20.604 16.107V15.022C20.452 14.896 20.297 14.761 20.14 14.625C19.04 13.674 17.905 12.692 16.664 12.979C15.797 13.18 15.313 13.895 14.753 14.722C14.27 15.436 13.77 16.174 12.963 16.674C11.758 17.42 10.486 16.864 9.556 16.458L9.402 16.391C8.244 15.885 7.466 15.987 6.719 16.74C6.448 17.013 6.006 17.017 5.733 16.744C5.46 16.473 5.458 16.03 5.729 15.757C6.89 14.587 8.273 14.376 9.959 15.11L10.116 15.18C11.04 15.584 11.686 15.825 12.229 15.487C12.782 15.146 13.178 14.56 13.598 13.939C14.231 13.005 14.948 11.944 16.348 11.619C18.28 11.169 19.817 12.501 21.053 13.569C21.287 13.772 21.515 13.97 21.737 14.147C21.903 14.28 21.999 14.48 21.999 14.692L22 16.107C22 19.632 19.732 22 16.358 22H7.641C4.267 22 2 19.632 2 16.107V7.893C2 4.368 4.267 2 7.641 2H16.359ZM8.8536 6.2221C10.2646 6.2221 11.4116 7.3701 11.4116 8.7801C11.4116 10.1911 10.2646 11.3391 8.8536 11.3391C7.4426 11.3391 6.2956 10.1911 6.2956 8.7801C6.2956 7.3701 7.4426 6.2221 8.8536 6.2221ZM8.8536 7.6181C8.2126 7.6181 7.6906 8.1391 7.6906 8.7801C7.6906 9.4221 8.2126 9.9431 8.8536 9.9431C9.4956 9.9431 10.0166 9.4221 10.0166 8.7801C10.0166 8.1391 9.4956 7.6181 8.8536 7.6181Z" fill="#200E32"/>
</svg>
