<svg width="20" height="20" viewBox="0 0 20 20" fill="none" xmlns="http://www.w3.org/2000/svg">
<path d="M13.747 -0.000244141C17.608 -0.000244141 20 2.39276 20 6.25576V13.7558C20 17.6078 17.608 19.9998 13.747 19.9998H6.244C2.392 19.9998 2.1779e-06 17.6078 0.00100437 13.7528C0.00100437 13.3308 0.344004 12.9878 0.766004 12.9878C1.189 12.9878 1.531 13.3308 1.531 13.7528C1.531 16.7868 3.202 18.4668 6.254 18.4668H13.747C16.79 18.4668 18.47 16.7958 18.47 13.7528V6.25276C18.47 3.20976 16.8 1.52976 13.747 1.52976H6.253C3.21 1.52976 1.53 3.20976 1.53 6.25276V8.58376C1.53 9.00176 1.192 9.33976 0.774004 9.33976H0.763004C0.341004 9.33976 -0.000995635 8.99676 2.17786e-06 8.57476V6.25276C2.17786e-06 2.39276 2.41 -0.000244141 6.254 -0.000244141H13.747ZM5.5207 8.80376C6.1817 8.80376 6.7187 9.34076 6.7187 9.99976C6.7187 10.6598 6.1817 11.1968 5.5207 11.1968C4.8607 11.1968 4.3227 10.6598 4.3227 9.99976C4.3227 9.34076 4.8607 8.80376 5.5207 8.80376ZM10.0002 8.80376C10.6612 8.80376 11.1982 9.34076 11.1982 9.99976C11.1982 10.6598 10.6612 11.1968 10.0002 11.1968C9.3402 11.1968 8.8022 10.6598 8.8022 9.99976C8.8022 9.34076 9.3402 8.80376 10.0002 8.80376ZM14.4792 8.80376C15.1402 8.80376 15.6772 9.34076 15.6772 9.99976C15.6772 10.6598 15.1402 11.1968 14.4792 11.1968C13.8192 11.1968 13.2812 10.6598 13.2812 9.99976C13.2812 9.34076 13.8192 8.80376 14.4792 8.80376Z" fill="#200E32"/>
</svg>
