<svg width="24" height="24" viewBox="0 0 24 24" fill="none" xmlns="http://www.w3.org/2000/svg">
<path d="M12 1.99982C17.514 1.99982 22 6.48482 22 11.9998C22 17.5138 17.514 21.9998 12 21.9998C10.605 21.9998 9.255 21.7188 7.987 21.1618C7.621 21.0018 7.455 20.5748 7.615 20.2088C7.775 19.8408 8.201 19.6758 8.569 19.8368C9.652 20.3118 10.806 20.5528 12 20.5528C16.715 20.5528 20.552 16.7148 20.552 11.9998C20.552 7.28382 16.715 3.44782 12 3.44782C7.284 3.44782 3.448 7.28382 3.448 11.9998C3.448 13.8468 4.026 15.6038 5.122 17.0838C5.359 17.4048 5.292 17.8578 4.971 18.0958C4.649 18.3348 4.196 18.2688 3.958 17.9448C2.677 16.2158 2 14.1598 2 11.9998C2 6.48482 6.486 1.99982 12 1.99982ZM10.8639 8.03022C11.0869 8.03622 11.4949 8.18822 11.6599 8.25322C12.6792 8.64851 14.5657 9.90393 15.4444 10.7547L15.5969 10.9092L15.6759 10.9942C15.7699 11.0932 15.8859 11.2192 15.9129 11.2532C16.0799 11.4662 16.1709 11.7312 16.1709 12.0002C16.1709 12.2552 16.0909 12.5012 15.9409 12.7082C15.9129 12.7458 15.8119 12.8589 15.7215 12.957L15.6569 13.0262L15.6079 13.0782C14.7939 13.9542 12.7789 15.2782 11.7609 15.7072C11.7554 15.7099 11.2541 15.9185 10.9429 15.9616L10.8559 15.9692H10.8199C10.3779 15.9692 9.9599 15.7162 9.7539 15.3182C9.66808 15.1517 9.58491 14.764 9.54554 14.5627L9.52487 14.453L9.5219 14.4362C9.4269 13.8582 9.3729 12.9692 9.37485 11.9992C9.3729 10.9732 9.4329 10.0522 9.5379 9.47322C9.5389 9.46522 9.6389 8.94222 9.7139 8.76622C9.8159 8.51922 10.0079 8.30722 10.2509 8.17522C10.4469 8.07222 10.6519 8.02722 10.8639 8.03022ZM10.9989 9.55022C10.9839 9.61922 10.9699 9.68722 10.9619 9.73322C10.8749 10.2142 10.8209 11.0832 10.8219 11.9992C10.8209 12.8822 10.8689 13.7062 10.9509 14.2012C10.9609 14.2632 10.9799 14.3582 11.0009 14.4502C11.0729 14.4212 11.1509 14.3922 11.1999 14.3722C12.1259 13.9822 13.9399 12.7472 14.5469 12.0912C14.5519 12.0922 14.6039 12.0332 14.6049 12.0312C14.6139 12.0212 14.6239 12.0102 14.6349 12.0002L14.6279 11.9927L14.6209 11.9852L14.5369 11.8962C13.9099 11.2252 11.9989 9.93722 11.1319 9.60022C11.1009 9.58822 11.0529 9.57022 10.9989 9.55022Z" fill="white"/>
</svg>
