<svg width="18" height="18" viewBox="0 0 18 18" fill="none" xmlns="http://www.w3.org/2000/svg">
<path fill-rule="evenodd" clip-rule="evenodd" d="M15.1503 15.4233L10.2572 9.2467C10.1419 9.10108 10.1419 8.89635 10.2572 8.75074L15.1503 2.57416L2.30512 8.99872L15.1503 15.4233ZM16.5944 0.999979C16.7128 0.999979 16.829 1.05146 16.9081 1.14713C17.0286 1.29275 17.0308 1.50163 16.9135 1.64972L11.0917 8.9985L16.9135 16.3474C17.0308 16.4955 17.0286 16.7044 16.9081 16.8499C16.7877 16.9956 16.5814 17.0387 16.4117 16.954L1.22276 9.35715C1.08617 9.28879 1 9.15014 1 8.9985C1 8.84686 1.08617 8.70821 1.22276 8.63993L16.4117 1.04309C16.4699 1.01397 16.5325 0.999979 16.5944 0.999979Z" fill="white"/>
<path d="M15.1503 15.4233L14.9714 15.7811L15.4639 15.175L15.1503 15.4233ZM10.2572 9.2467L9.94361 9.495L9.94367 9.49508L10.2572 9.2467ZM10.2572 8.75074L9.94367 8.50235L9.94361 8.50243L10.2572 8.75074ZM15.1503 2.57416L15.4639 2.82255L14.9714 2.21641L15.1503 2.57416ZM2.30512 8.99872L2.12619 8.64097L1.41092 8.99872L2.12619 9.35647L2.30512 8.99872ZM16.9081 1.14713L17.2164 0.892199L17.2164 0.892172L16.9081 1.14713ZM16.9135 1.64972L16.6 1.40133L16.6 1.40133L16.9135 1.64972ZM11.0917 8.9985L10.7782 8.75012L10.5814 8.9985L10.7782 9.24689L11.0917 8.9985ZM16.9135 16.3474L16.5999 16.5958L16.6 16.5958L16.9135 16.3474ZM16.9081 16.8499L16.6 16.5949L16.5999 16.595L16.9081 16.8499ZM16.4117 16.954L16.2328 17.3117L16.233 17.3118L16.4117 16.954ZM1.22276 9.35715L1.04374 9.71486L1.04383 9.7149L1.22276 9.35715ZM1.22276 8.63993L1.40163 8.9977L1.40168 8.99767L1.22276 8.63993ZM16.4117 1.04309L16.5907 1.40084L16.5908 1.40079L16.4117 1.04309ZM15.4639 15.175L10.5707 8.99831L9.94367 9.49508L14.8368 15.6717L15.4639 15.175ZM10.5708 8.99839V8.99905L9.94361 8.50243C9.71311 8.79354 9.71311 9.20389 9.94361 9.495L10.5708 8.99839ZM10.5707 8.99912L15.4639 2.82255L14.8368 2.32578L9.94367 8.50235L10.5707 8.99912ZM14.9714 2.21641L2.12619 8.64097L2.48405 9.35647L15.3292 2.93191L14.9714 2.21641ZM2.12619 9.35647L14.9714 15.7811L15.3292 15.0656L2.48405 8.64097L2.12619 9.35647ZM16.5944 1.39998C16.5978 1.39998 16.5994 1.40147 16.5999 1.40209L17.2164 0.892172C17.0586 0.701456 16.8279 0.599979 16.5944 0.599979V1.39998ZM16.5999 1.40207L16.6 1.40133L17.227 1.89811C17.4616 1.60196 17.4571 1.18325 17.2164 0.892199L16.5999 1.40207ZM16.6 1.40133L10.7782 8.75012L11.4052 9.24689L17.227 1.8981L16.6 1.40133ZM10.7782 9.24689L16.5999 16.5958L17.227 16.099L11.4052 8.75012L10.7782 9.24689ZM16.6 16.5958L16.6 16.5949L17.2163 17.1049C17.4571 16.8139 17.4616 16.3951 17.227 16.099L16.6 16.5958ZM16.5999 16.595C16.5995 16.5955 16.5987 16.5964 16.5964 16.5969C16.594 16.5973 16.5922 16.597 16.5905 16.5962L16.233 17.3118C16.5681 17.4792 16.9766 17.3948 17.2164 17.1049L16.5999 16.595ZM16.5907 16.5962L1.40168 8.9994L1.04383 9.7149L16.2328 17.3117L16.5907 16.5962ZM1.40177 8.99944C1.4005 8.99881 1.40008 8.99823 1.39994 8.99799C1.39985 8.99785 1.39987 8.99784 1.39992 8.998C1.39994 8.99809 1.39997 8.99819 1.39998 8.99831C1.39999 8.99836 1.39999 8.99841 1.4 8.99845C1.4 8.99849 1.4 8.99851 1.4 8.9985H0.6C0.6 9.30315 0.7731 9.57941 1.04374 9.71486L1.40177 8.99944ZM1.4 8.9985C1.4 8.9985 1.4 8.99852 1.4 8.99856C1.39999 8.99859 1.39999 8.99864 1.39998 8.9987C1.39997 8.99882 1.39994 8.99892 1.39992 8.99901C1.39987 8.99918 1.39984 8.99918 1.39992 8.99905C1.40006 8.99884 1.40043 8.9983 1.40163 8.9977L1.04388 8.28215C0.773088 8.41753 0.6 8.69389 0.6 8.9985H1.4ZM1.40168 8.99767L16.5907 1.40084L16.2328 0.685345L1.04383 8.28218L1.40168 8.99767ZM16.5908 1.40079C16.5919 1.40025 16.5929 1.39998 16.5944 1.39998V0.599979C16.472 0.599979 16.348 0.627689 16.2327 0.68539L16.5908 1.40079Z" fill="white"/>
</svg>
