<svg width="20" height="20" viewBox="0 0 20 20" fill="none" xmlns="http://www.w3.org/2000/svg">
<circle cx="10" cy="10" r="10" fill="white"/>
<path d="M9.246 14.0871C9.20733 14.0495 9.042 13.9072 8.906 13.7748C8.05067 12.998 6.65067 10.9717 6.22333 9.91115C6.15467 9.75008 6.00933 9.34287 6 9.1253C6 8.91683 6.048 8.7181 6.14533 8.52845C6.28133 8.29205 6.49533 8.10241 6.748 7.9985C6.92333 7.9316 7.448 7.82769 7.45733 7.82769C8.03133 7.72378 8.964 7.66663 9.99467 7.66663C10.9767 7.66663 11.8713 7.72378 12.454 7.80886C12.4633 7.8186 13.1153 7.92251 13.3387 8.03617C13.7467 8.24464 14 8.65185 14 9.08764V9.1253C13.99 9.40912 13.7367 10.006 13.7273 10.006C13.2993 11.0094 11.968 12.9889 11.0833 13.7845C11.0833 13.7845 10.856 14.0086 10.714 14.106C10.51 14.258 10.2573 14.3333 10.0047 14.3333C9.72267 14.3333 9.46 14.2482 9.246 14.0871Z" fill="#0055FF"/>
</svg>
