<svg width="20" height="20" viewBox="0 0 20 20" fill="none" xmlns="http://www.w3.org/2000/svg">
<path fill-rule="evenodd" clip-rule="evenodd" d="M19.0001 10C19.0001 14.9706 14.9706 19 10.0001 19C5.02946 19 1 14.9706 1 10C1 5.0294 5.02946 1 10.0001 1C14.9706 1 19.0001 5.0294 19.0001 10Z" stroke="#200E32" stroke-width="1.5" stroke-linecap="round" stroke-linejoin="round"/>
<path d="M5.97409 6.26401C6.84374 6.26401 7.54877 6.96897 7.54877 7.83868C7.54877 8.70833 6.84374 9.4133 5.97409 9.4133C5.10444 9.4133 4.39941 8.70833 4.39941 7.83868" stroke="#200E32" stroke-width="1.5" stroke-linecap="round" stroke-linejoin="round"/>
<path d="M14.0258 6.26401C14.8955 6.26401 15.6005 6.96897 15.6005 7.83868C15.6005 8.70833 14.8955 9.4133 14.0258 9.4133C13.1562 9.4133 12.4512 8.70833 12.4512 7.83868" stroke="#200E32" stroke-width="1.5" stroke-linecap="round" stroke-linejoin="round"/>
<path d="M4.76074 12.2813C4.85321 12.518 4.95911 12.7473 5.07743 12.9678C5.20062 13.1974 5.33726 13.4177 5.4862 13.6273C5.63514 13.8369 5.79644 14.036 5.96879 14.2231C7.00313 15.346 8.43855 16.0417 10.0253 16.0417C12.3949 16.0417 14.4271 14.4902 15.2898 12.2813" stroke="#200E32" stroke-width="1.5" stroke-linecap="round" stroke-linejoin="round"/>
</svg>
