<svg width="24" height="24" viewBox="0 0 24 24" fill="none" xmlns="http://www.w3.org/2000/svg">
<g opacity="0.5">
<path d="M13.178 22.0002C12.761 22.0002 12.422 21.6612 12.422 21.2442L12.422 21.2352L12.439 21.2352C12.439 20.8132 12.781 20.4712 13.203 20.4702L15.747 20.4702C18.8 20.4702 20.47 18.8002 20.47 15.7562L20.47 8.25624C20.47 5.21024 18.79 3.53024 15.747 3.53024L8.247 3.53024C5.213 3.53024 3.533 5.21024 3.533 8.25324L3.533 15.7532C3.533 18.7962 5.213 20.4672 8.247 20.4672C8.669 20.4672 9.012 20.8102 9.012 21.2322C9.012 21.6542 8.669 21.9972 8.247 21.9972C4.392 22.0002 2 19.6082 2 15.7562L2 8.25324C2 4.39224 4.392 2.00024 8.244 2.00024L15.744 2.00024C19.607 2.00024 22 4.39224 22 8.25324L22 15.7532C22 19.5902 19.607 22.0002 15.747 22.0002L13.178 22.0002ZM11.9999 16.8361C11.5859 16.8361 11.2499 16.5001 11.2499 16.0861L11.2499 7.91414C11.2499 7.81514 11.2699 7.71914 11.3079 7.62614C11.3459 7.53514 11.4009 7.45214 11.4709 7.38314C11.4779 7.37514 11.4869 7.37314 11.4939 7.36614C11.5599 7.30714 11.6319 7.25614 11.7139 7.22214C11.7949 7.18914 11.8799 7.17514 11.9649 7.17114C11.9779 7.17014 11.9869 7.16414 11.9999 7.16414C12.0989 7.16414 12.1959 7.18414 12.2869 7.22214C12.3789 7.26014 12.4619 7.31514 12.5299 7.38414C12.5309 7.38414 12.5309 7.38414 12.5309 7.38514L16.2789 11.1491C16.5699 11.4421 16.5719 11.9171 16.2769 12.2091C15.9829 12.5021 15.5089 12.5011 15.2169 12.2071L12.7499 9.73014L12.7499 16.0861C12.7499 16.5001 12.4139 16.8361 11.9999 16.8361ZM8.7829 12.2074C8.4909 12.5014 8.0169 12.5024 7.7229 12.2104C7.5749 12.0624 7.5019 11.8704 7.5019 11.6774C7.5019 11.4864 7.5749 11.2954 7.7209 11.1484L8.9989 9.86444C9.2909 9.57144 9.7659 9.57044 10.0599 9.86244C10.3529 10.1554 10.3529 10.6294 10.0609 10.9234L8.7829 12.2074Z" fill="#200E32"/>
</g>
</svg>
