<svg width="48" height="48" viewBox="0 0 48 48" fill="none" xmlns="http://www.w3.org/2000/svg">
<circle opacity="0.75" cx="24" cy="24" r="24" fill="#1E1E1E"/>
<path d="M29.553 19.1979C32.005 19.1979 34 21.2718 34 23.8208V28.8875C34 31.4303 32.01 33.5 29.563 33.5H21.9491C21.5241 33.5 21.1801 33.1403 21.1801 32.6995C21.1801 32.2567 21.5241 31.8981 21.9491 31.8981H29.563C31.16 31.8981 32.46 30.5477 32.46 28.8875V23.8208C32.46 22.1544 31.156 20.7988 29.553 20.7988H28.6221C28.1971 20.7988 27.8531 20.4412 27.8531 19.9984C27.8531 19.5566 28.1971 19.1979 28.6221 19.1979H29.553ZM19.3779 19.1984C19.8029 19.1984 20.1479 19.5571 20.1479 19.9989C20.1479 20.4407 19.8029 20.7993 19.3779 20.7993H18.437C16.84 20.7993 15.54 22.1508 15.54 23.8099V28.8766C15.54 30.543 16.844 31.8986 18.447 31.8986C18.872 31.8986 19.2169 32.2572 19.2169 32.699C19.2169 33.1408 18.872 33.4995 18.447 33.4995C15.995 33.4995 14 31.4256 14 28.8766V23.8099C14 21.2671 15.99 19.1984 18.437 19.1984H19.3779ZM23.9998 14.5C24.4248 14.5 24.7708 14.8433 24.7708 15.2662V27.2212C24.7708 27.5317 24.5828 27.8113 24.2938 27.9297C24.0058 28.0482 23.6738 27.9815 23.4538 27.7626L20.5458 24.8549C20.3968 24.7057 20.3218 24.5096 20.3218 24.3136C20.3218 24.1176 20.3968 23.9205 20.5478 23.7713C20.8498 23.4727 21.3368 23.4737 21.6368 23.7733L23.2298 25.3654V15.2662C23.2298 14.8433 23.5748 14.5 23.9998 14.5ZM26.3612 23.775C26.6602 23.4745 27.1472 23.4715 27.4502 23.7691C27.7532 24.0656 27.7552 24.5502 27.4562 24.8527L26.7282 25.5861C26.4302 25.8866 25.9422 25.8896 25.6402 25.5911C25.4872 25.4418 25.4112 25.2448 25.4112 25.0468C25.4112 24.8527 25.4852 24.6577 25.6342 24.5074L26.3612 23.775Z" fill="white"/>
</svg>
