<svg width="48" height="48" viewBox="0 0 48 48" fill="none" xmlns="http://www.w3.org/2000/svg">
<circle opacity="0.75" cx="24" cy="24" r="24" fill="#1E1E1E"/>
<path d="M24 13.9998C29.514 13.9998 34 18.4848 34 23.9998C34 29.5138 29.514 33.9998 24 33.9998C22.605 33.9998 21.255 33.7188 19.987 33.1618C19.621 33.0018 19.455 32.5748 19.615 32.2088C19.775 31.8408 20.201 31.6758 20.569 31.8368C21.652 32.3118 22.806 32.5528 24 32.5528C28.715 32.5528 32.552 28.7148 32.552 23.9998C32.552 19.2838 28.715 15.4478 24 15.4478C19.284 15.4478 15.448 19.2838 15.448 23.9998C15.448 25.8468 16.026 27.6038 17.122 29.0838C17.359 29.4048 17.292 29.8578 16.971 30.0958C16.649 30.3348 16.196 30.2688 15.958 29.9448C14.677 28.2158 14 26.1598 14 23.9998C14 18.4848 18.486 13.9998 24 13.9998ZM22.8639 20.0302C23.0869 20.0362 23.4949 20.1882 23.6599 20.2532C24.6792 20.6484 26.5657 21.9039 27.4444 22.7547L27.5969 22.9092L27.6759 22.9942C27.7699 23.0932 27.8859 23.2192 27.9129 23.2532C28.0799 23.4662 28.1709 23.7312 28.1709 24.0002C28.1709 24.2552 28.0909 24.5012 27.9409 24.7082C27.9129 24.7458 27.8119 24.8589 27.7215 24.9569L27.6569 25.0262L27.6079 25.0782C26.7939 25.9542 24.7789 27.2782 23.7609 27.7072C23.7554 27.7099 23.2541 27.9184 22.9429 27.9615L22.8559 27.9692H22.8199C22.3779 27.9692 21.9599 27.7162 21.7539 27.3182C21.6681 27.1516 21.5849 26.764 21.5455 26.5626L21.5249 26.4529L21.5219 26.4362C21.4269 25.8582 21.3729 24.9692 21.3748 23.9992C21.3729 22.9732 21.4329 22.0522 21.5379 21.4732C21.5389 21.4652 21.6389 20.9422 21.7139 20.7662C21.8159 20.5192 22.0079 20.3072 22.2509 20.1752C22.4469 20.0722 22.6519 20.0272 22.8639 20.0302ZM22.9989 21.5502C22.9839 21.6192 22.9699 21.6872 22.9619 21.7332C22.8749 22.2142 22.8209 23.0832 22.8219 23.9992C22.8209 24.8822 22.8689 25.7062 22.9509 26.2012C22.9609 26.2632 22.9799 26.3582 23.0009 26.4502C23.0729 26.4212 23.1509 26.3922 23.1999 26.3722C24.1259 25.9822 25.9399 24.7472 26.5469 24.0912C26.5519 24.0922 26.6039 24.0332 26.6049 24.0312C26.6139 24.0212 26.6239 24.0102 26.6349 24.0002L26.6279 23.9927L26.6209 23.9852L26.5369 23.8962C25.9099 23.2252 23.9989 21.9372 23.1319 21.6002C23.1009 21.5882 23.0529 21.5702 22.9989 21.5502Z" fill="white"/>
</svg>
